<?xml version="1.0" encoding="utf-8"?>
<!-- Generator: Adobe Illustrator 16.0.0, SVG Export Plug-In . SVG Version: 6.00 Build 0)  -->
<!DOCTYPE svg PUBLIC "-//W3C//DTD SVG 1.1//EN" "http://www.w3.org/Graphics/SVG/1.1/DTD/svg11.dtd">
<svg version="1.1" id="Layer_1" xmlns="http://www.w3.org/2000/svg" xmlns:xlink="http://www.w3.org/1999/xlink" x="0px" y="0px"
	 width="40px" height="15.5px" viewBox="7.521 6.208 40 15.5" enable-background="new 7.521 6.208 40 15.5" xml:space="preserve">
<g id="Fons" display="none">
</g>
<g id="n">
	<g>
		<path fill="#FFFFFF" d="M10.131,11.718c0.925-1.043,1.965-1.564,3.12-1.564c2.354,0,3.533,1.283,3.533,3.848v6.83h-1.86V14.08
			c0-0.852-0.152-1.465-0.458-1.839c-0.305-0.375-0.806-0.561-1.501-0.561c-0.944,0-1.89,0.557-2.834,1.673v7.479h-1.86V10.39h1.86
			V11.718L10.131,11.718z"/>
	</g>
</g>
<g id="e">
	<g>
		<path fill="#FFFFFF" d="M23.938,21.003c-1.535,0-2.769-0.48-3.7-1.439c-0.931-0.963-1.396-2.301-1.396-4.021
			c0-1.705,0.45-3.04,1.352-4.008c0.902-0.968,2.08-1.451,3.537-1.451c1.489,0,2.678,0.476,3.566,1.426
			c0.889,0.952,1.333,2.295,1.333,4.034v0.443h-7.86c0.078,1.207,0.411,2.104,0.998,2.686c0.588,0.584,1.311,0.875,2.17,0.875
			c0.649,0,1.234-0.164,1.757-0.496c0.521-0.332,0.795-0.801,0.82-1.412h1.918c-0.144,1.076-0.63,1.906-1.459,2.488
			C26.144,20.712,25.132,21.003,23.938,21.003z M26.674,14.531c-0.151-1.004-0.489-1.754-1.014-2.253
			c-0.525-0.499-1.168-0.748-1.929-0.748c-0.741,0-1.377,0.248-1.908,0.742c-0.53,0.495-0.869,1.248-1.014,2.257h5.864V14.531z"/>
	</g>
</g>
<g id="i">
	<rect x="30.672" y="7" fill="#FFFFFF" width="1.793" height="1.792"/>
	<rect x="30.672" y="10.226" fill="#FFFFFF" width="1.793" height="10.752"/>
</g>
<g id="x">
	<path fill="#FFFFFF" d="M34.223,19.673c0-0.715,0.577-1.293,1.291-1.293c0.713,0,1.293,0.578,1.293,1.293
		c0,0.713-0.58,1.291-1.293,1.291C34.8,20.964,34.223,20.386,34.223,19.673z"/>
	<path fill="#FFFFFF" d="M36.731,17.523c0-0.713,0.578-1.293,1.291-1.293c0.715,0,1.294,0.58,1.294,1.293s-0.579,1.291-1.294,1.291
		C37.31,18.814,36.731,18.236,36.731,17.523z"/>
	<path fill="#E6007E" d="M39.24,15.373c0-0.715,0.578-1.293,1.291-1.293c0.715,0,1.294,0.578,1.294,1.293
		c0,0.713-0.579,1.291-1.294,1.291C39.818,16.664,39.24,16.085,39.24,15.373z"/>
	<path fill="#FFFFFF" d="M41.75,17.523c0-0.713,0.577-1.293,1.29-1.293c0.715,0,1.293,0.58,1.293,1.293s-0.578,1.291-1.293,1.291
		C42.327,18.814,41.75,18.236,41.75,17.523z"/>
	<path fill="#FFFFFF" d="M44.258,19.673c0-0.715,0.577-1.293,1.291-1.293c0.713,0,1.294,0.578,1.294,1.293
		c0,0.713-0.581,1.291-1.294,1.291C44.835,20.964,44.258,20.386,44.258,19.673z"/>
	<path fill="#FFFFFF" d="M34.223,11.069c0,0.716,0.577,1.294,1.291,1.294c0.713,0,1.293-0.578,1.293-1.294
		c0-0.712-0.58-1.29-1.293-1.29C34.8,9.779,34.223,10.357,34.223,11.069z"/>
	<path fill="#FFFFFF" d="M36.731,13.221c0,0.714,0.578,1.292,1.291,1.292c0.715,0,1.294-0.578,1.294-1.292
		c0-0.713-0.579-1.292-1.294-1.292C37.31,11.929,36.731,12.508,36.731,13.221z"/>
	<path fill="#FFFFFF" d="M41.75,13.221c0,0.714,0.577,1.292,1.29,1.292c0.715,0,1.293-0.578,1.293-1.292
		c0-0.713-0.578-1.292-1.293-1.292C42.327,11.929,41.75,12.508,41.75,13.221z"/>
	<path fill="#FFFFFF" d="M44.258,11.069c0,0.716,0.577,1.294,1.291,1.294c0.713,0,1.294-0.578,1.294-1.294
		c0-0.712-0.581-1.29-1.294-1.29C44.835,9.779,44.258,10.357,44.258,11.069z"/>
</g>
</svg>
