<?xml version="1.0" encoding="utf-8"?>
<!-- Generator: Adobe Illustrator 16.0.0, SVG Export Plug-In . SVG Version: 6.00 Build 0)  -->
<!DOCTYPE svg PUBLIC "-//W3C//DTD SVG 1.1//EN" "http://www.w3.org/Graphics/SVG/1.1/DTD/svg11.dtd">
<svg version="1.1" id="Capa_1" xmlns="http://www.w3.org/2000/svg" xmlns:xlink="http://www.w3.org/1999/xlink" x="0px" y="0px"
	 width="38px" height="38px" viewBox="0 0 38 38" enable-background="new 0 0 38 38" xml:space="preserve">
<path fill="#FFFFFF" d="M0,19.001c0,9.858,8.02,17.875,17.877,17.875c4.504,0,8.808-1.678,12.115-4.73l-3.05-3.309
	c-2.476,2.285-5.694,3.541-9.065,3.541c-7.377,0-13.379-6.001-13.379-13.377S10.5,5.624,17.877,5.624
	c7.207,0,13.099,5.727,13.367,12.867l-2.234-0.1l4.142,8.133L38,18.791l-2.249-0.101c-0.167-9.713-8.12-17.567-17.874-17.567
	C8.02,1.123,0,9.144,0,19.001z"/>
</svg>
