<?xml version="1.0" encoding="utf-8"?>
<!-- Generator: Adobe Illustrator 16.0.0, SVG Export Plug-In . SVG Version: 6.00 Build 0)  -->
<!DOCTYPE svg PUBLIC "-//W3C//DTD SVG 1.1//EN" "http://www.w3.org/Graphics/SVG/1.1/DTD/svg11.dtd">
<svg version="1.1" id="Layer_1" xmlns="http://www.w3.org/2000/svg" xmlns:xlink="http://www.w3.org/1999/xlink" x="0px" y="0px"
	 width="53.793px" height="25.75px" viewBox="0 0 53.793 25.75" enable-background="new 0 0 53.793 25.75" xml:space="preserve">
<g id="Fons" display="none">
</g>
<linearGradient id="SVGID_1_" gradientUnits="userSpaceOnUse" x1="1218.3008" y1="1481.7637" x2="1231.1614" y2="1474.3386" gradientTransform="matrix(1 0 0 1 -1204.8828 -1461.0469)">
	<stop  offset="0" style="stop-color:#008112"/>
	<stop  offset="1" style="stop-color:#00FE12"/>
</linearGradient>
<path fill="url(#SVGID_1_)" d="M26.982,17.291l0.433-2.033L21.91,14.09c1.11,0.057,2.176-0.596,2.576-1.696
	c0.492-1.349-0.204-2.84-1.554-3.332c-1.35-0.491-2.842,0.204-3.333,1.554c-0.399,1.096-0.007,2.275,0.873,2.947l-4.945-2.629
	L14.55,12.77l4.375,2.327l-4.985,6.521l1.705,1.271l4.319-5.654l-0.326,7.104l2.121,0.125l0.376-8.198L26.982,17.291z"/>
<linearGradient id="SVGID_2_" gradientUnits="userSpaceOnUse" x1="1232.7227" y1="1474.3379" x2="1245.5845" y2="1481.7637" gradientTransform="matrix(1 0 0 1 -1204.8828 -1461.0469)">
	<stop  offset="0" style="stop-color:#00CEAF"/>
	<stop  offset="1" style="stop-color:#0006ED"/>
</linearGradient>
<path fill="url(#SVGID_2_)" d="M27.139,17.291l-0.433-2.033l5.505-1.167c-1.109,0.057-2.176-0.596-2.576-1.696
	c-0.49-1.349,0.205-2.84,1.555-3.332c1.354-0.491,2.847,0.204,3.332,1.554c0.398,1.096,0.008,2.275-0.873,2.947l4.945-2.629
	l0.977,1.836l-4.375,2.327l4.986,6.521l-1.707,1.271l-4.313-5.654l0.321,7.104l-2.119,0.125l-0.377-8.199L27.139,17.291z"/>
<linearGradient id="SVGID_3_" gradientUnits="userSpaceOnUse" x1="1207.0518" y1="1473.3838" x2="1220.6138" y2="1465.554" gradientTransform="matrix(1 0 0 1 -1204.8828 -1461.0469)">
	<stop  offset="0" style="stop-color:#FF8F2A"/>
	<stop  offset="1" style="stop-color:#FFCE00"/>
</linearGradient>
<path fill="url(#SVGID_3_)" d="M14.55,12.752l1.392-1.546L11.76,7.44c0.933,0.604,2.182,0.571,3.078-0.18
	c1.101-0.924,1.244-2.563,0.321-3.663c-0.923-1.1-2.563-1.244-3.663-0.321c-0.893,0.75-1.144,1.967-0.717,2.99l-2.968-4.75
	L6.046,2.618L8.672,6.82l-7.58,3.159l0.842,1.951l6.568-2.738l-3.836,5.994l1.774,1.167l4.428-6.917L14.55,12.752z"/>
<linearGradient id="SVGID_4_" gradientUnits="userSpaceOnUse" x1="1255.2744" y1="1475.2998" x2="1244.2258" y2="1464.2512" gradientTransform="matrix(1 0 0 1 -1204.8828 -1461.0469)">
	<stop  offset="0" style="stop-color:#D70B0B"/>
	<stop  offset="1" style="stop-color:#FF2F2A"/>
</linearGradient>
<path fill="url(#SVGID_4_)" d="M39.57,12.752l-1.391-1.546l4.182-3.766c-0.934,0.604-2.182,0.571-3.078-0.18
	c-1.102-0.924-1.244-2.563-0.32-3.663c0.922-1.1,2.563-1.244,3.662-0.321c0.893,0.75,1.145,1.967,0.718,2.99l2.968-4.75l1.77,1.102
	L45.45,6.82l7.579,3.159l-0.844,1.951L45.62,9.192l3.836,5.994l-1.772,1.167l-4.429-6.917L39.57,12.752z"/>
<rect x="8.504" y="6.634" transform="matrix(-0.6429 -0.7659 0.7659 -0.6429 10.2584 21.1702)" fill="#FFFFFF" stroke="#000000" stroke-width="0.5" stroke-miterlimit="10" width="3.12" height="3.12"/>
<g enable-background="new    ">
	<path d="M9.053,8.666c0.014-0.008,0.028-0.016,0.04-0.021C9.104,8.637,9.115,8.63,9.126,8.623c0.012-0.007,0.022-0.014,0.03-0.02
		l0.067-0.037l0.015-0.012C9.243,8.55,9.251,8.541,9.267,8.525c0.015-0.016,0.031-0.033,0.048-0.051s0.033-0.035,0.048-0.051
		C9.376,8.408,9.386,8.398,9.39,8.394l0.212-0.178c0.004-0.003,0.01-0.01,0.019-0.021C9.63,8.184,9.639,8.174,9.648,8.163
		c0.01-0.012,0.02-0.022,0.028-0.033c0.007-0.01,0.013-0.016,0.017-0.02L9.705,8.1l0.031-0.025c0.003-0.003,0.014-0.01,0.03-0.021
		C9.782,8.043,9.8,8.033,9.819,8.019c0.019-0.012,0.036-0.023,0.052-0.033c0.016-0.01,0.027-0.017,0.031-0.02l0.063-0.053
		l0.06-0.051c0.007-0.006,0.017-0.018,0.029-0.035c0.012-0.016,0.024-0.033,0.036-0.053c0.012-0.02,0.021-0.038,0.03-0.056
		c0.008-0.018,0.013-0.03,0.013-0.037V7.657L10.11,7.631l-0.024-0.028c-0.003-0.004-0.011-0.012-0.021-0.024
		c-0.011-0.013-0.022-0.025-0.034-0.039c-0.013-0.015-0.024-0.028-0.035-0.04c-0.01-0.012-0.017-0.019-0.02-0.022
		C9.974,7.476,9.965,7.47,9.95,7.46C9.936,7.453,9.918,7.443,9.9,7.433c-0.018-0.01-0.035-0.018-0.05-0.028
		C9.835,7.396,9.826,7.39,9.823,7.386l-0.01-0.011L9.8,7.359L9.791,7.321c0.002-0.009,0.001-0.017-0.003-0.026
		c-0.003-0.01-0.008-0.02-0.013-0.03C9.77,7.253,9.766,7.244,9.762,7.234c-0.004-0.01-0.007-0.019-0.007-0.025L9.76,7.183
		L9.779,7.14l0.057-0.048l0.046-0.038c0.004-0.004,0.01-0.007,0.02-0.01C9.91,7.041,9.919,7.039,9.929,7.037
		C9.94,7.035,9.952,7.033,9.964,7.033c0.015,0.004,0.027,0.01,0.039,0.015c0.01,0.004,0.021,0.009,0.03,0.015
		c0.01,0.004,0.018,0.008,0.021,0.013l0.035,0.041l0.035,0.042l0.035,0.07c0.003,0.004,0.005,0.01,0.01,0.018
		c0.003,0.01,0.007,0.02,0.013,0.029c0.004,0.012,0.01,0.022,0.017,0.037c0.003,0.004,0.008,0.012,0.016,0.023
		c0.008,0.013,0.017,0.026,0.026,0.041c0.01,0.014,0.02,0.028,0.029,0.043c0.009,0.014,0.016,0.023,0.021,0.029l0.015,0.018
		l0.012,0.015c0.006,0.003,0.013,0.006,0.02,0.009c0.005,0.004,0.01,0.007,0.016,0.011c0.006,0.005,0.011,0.009,0.014,0.013
		c0.015,0.006,0.028,0.012,0.04,0.016c0.011,0.004,0.021,0.01,0.029,0.014c0.01,0.004,0.017,0.007,0.019,0.01l0.155,0.185
		c0.002,0.003,0.007,0.007,0.015,0.009c0.008,0.003,0.015,0.006,0.024,0.008c0.008,0.002,0.016,0.006,0.023,0.009
		c0.007,0.003,0.014,0.006,0.017,0.009l0.08,0.096c0.014,0.013,0.028,0.024,0.042,0.035c0.012,0.009,0.022,0.02,0.034,0.029
		c0.011,0.009,0.02,0.018,0.025,0.023c0.002,0.003,0.007,0.008,0.016,0.014c0.009,0.007,0.018,0.014,0.026,0.021
		C10.921,8,10.931,8.008,10.938,8.014c0.008,0.006,0.014,0.012,0.017,0.016c0.011,0.008,0.022,0.016,0.033,0.022
		c0.008,0.007,0.016,0.013,0.025,0.02c0.009,0.007,0.015,0.011,0.018,0.015l0.025,0.029l0.023,0.028
		c0.003,0.003,0.005,0.009,0.007,0.015c0.002,0.006,0.003,0.012,0.005,0.018c0.001,0.007,0.001,0.014,0.003,0.021
		c0.003,0.003,0.005,0.011,0.005,0.019c-0.001,0.011-0.001,0.02-0.003,0.029c-0.001,0.011-0.003,0.021-0.007,0.033L11.041,8.32
		l-0.03,0.025l-0.059-0.003c-0.015-0.001-0.03-0.003-0.044-0.003c-0.014-0.001-0.024-0.001-0.03,0L10.835,8.32l-0.034-0.04
		l-0.036-0.043l-0.007-0.043c-0.003-0.008-0.007-0.018-0.011-0.026s-0.007-0.016-0.01-0.022c-0.004-0.008-0.007-0.014-0.01-0.018
		L10.712,8.11l-0.07-0.055c-0.003-0.004-0.009-0.01-0.018-0.017c-0.009-0.007-0.018-0.013-0.027-0.02
		c-0.01-0.007-0.019-0.013-0.027-0.02c-0.008-0.007-0.013-0.011-0.016-0.015c-0.003-0.004-0.009-0.008-0.017-0.012
		c-0.008-0.003-0.017-0.006-0.025-0.01c-0.009-0.003-0.017-0.007-0.025-0.009c-0.008-0.003-0.013-0.006-0.015-0.009L10.42,7.937
		c-0.014,0.008-0.027,0.014-0.039,0.018c-0.011,0.006-0.021,0.01-0.03,0.016c-0.01,0.006-0.016,0.01-0.02,0.013
		s-0.015,0.013-0.036,0.026c-0.019,0.014-0.04,0.027-0.062,0.044c-0.022,0.015-0.042,0.03-0.062,0.044
		c-0.019,0.014-0.03,0.021-0.034,0.023c-0.004,0.004-0.011,0.01-0.02,0.016c-0.011,0.006-0.021,0.012-0.031,0.018
		c-0.011,0.007-0.021,0.013-0.03,0.019c-0.01,0.007-0.016,0.011-0.02,0.013c-0.027,0.023-0.053,0.047-0.078,0.07
		c-0.021,0.02-0.042,0.039-0.063,0.058S9.858,8.348,9.847,8.357L9.635,8.536L9.602,8.583C9.594,8.589,9.579,8.605,9.558,8.628
		C9.537,8.65,9.515,8.675,9.492,8.702C9.47,8.728,9.447,8.753,9.428,8.775C9.407,8.797,9.394,8.812,9.387,8.818
		c-0.004,0.003-0.01,0.009-0.016,0.016C9.365,8.84,9.359,8.847,9.353,8.855C9.346,8.863,9.34,8.871,9.334,8.878
		C9.33,8.884,9.324,8.89,9.319,8.894L9.29,8.947L9.273,8.96L9.26,8.971L9.198,8.996L9.176,8.994L9.133,8.976
		C9.13,8.973,9.123,8.968,9.111,8.962c-0.01-0.006-0.022-0.013-0.035-0.021C9.063,8.933,9.051,8.925,9.039,8.917
		C9.027,8.911,9.02,8.905,9.018,8.902l-0.02-0.023l-0.024-0.03l-0.01-0.045l0.021-0.038c0.004-0.009,0.011-0.02,0.018-0.03
		c0.008-0.013,0.015-0.023,0.022-0.033C9.034,8.691,9.042,8.677,9.053,8.666z"/>
</g>
<rect x="19.427" y="13.912" transform="matrix(-0.9399 -0.3415 0.3415 -0.9399 35.4305 37.1804)" fill="#FFFFFF" stroke="#000000" stroke-width="0.5" stroke-miterlimit="10" width="3.12" height="3.12"/>
<g enable-background="new    ">
	<path d="M20.854,15.951l-0.05-0.02c-0.011,0-0.021-0.002-0.031-0.002c-0.009-0.002-0.017-0.002-0.025-0.005
		c-0.008,0-0.015-0.002-0.02-0.004c-0.004-0.002-0.012-0.002-0.023-0.002c-0.011,0-0.021,0-0.033,0.002
		c-0.012,0-0.026,0-0.042,0.002h-0.057c-0.011,0.002-0.023,0.005-0.04,0.007c-0.017,0.002-0.033,0.004-0.05,0.008
		c-0.017,0.002-0.032,0.004-0.046,0.004s-0.022,0-0.026-0.002l-0.047,0.022l-0.073,0.203l-0.036,0.047
		c-0.001,0.004-0.007,0.011-0.015,0.019c-0.01,0.006-0.02,0.016-0.032,0.021c-0.011,0.009-0.023,0.017-0.035,0.021
		c-0.011,0.006-0.02,0.011-0.025,0.015L20.129,16.3c-0.006,0.003-0.015,0.007-0.023,0.009c-0.01,0.002-0.021,0.004-0.031,0.006
		c-0.01,0.002-0.021,0.004-0.03,0.004c-0.01,0-0.017,0-0.021-0.002l-0.014-0.006l-0.029-0.025c-0.004-0.006-0.009-0.016-0.015-0.023
		c-0.007-0.014-0.014-0.025-0.02-0.037c-0.006-0.012-0.012-0.021-0.017-0.031c-0.004-0.012-0.006-0.02-0.004-0.022
		c0-0.008-0.001-0.017-0.001-0.022s0-0.012,0-0.019c0-0.008,0.001-0.012,0.003-0.019l0.005-0.014l0.006-0.02
		c0.004-0.01,0.011-0.021,0.021-0.031c0.01-0.012,0.018-0.021,0.021-0.031l0.031-0.025l0.021-0.014l0.029-0.024
		c0.001-0.005,0.005-0.011,0.013-0.021c0.007-0.008,0.015-0.018,0.024-0.025c0.008-0.01,0.016-0.018,0.023-0.026
		c0.006-0.006,0.012-0.014,0.013-0.019c0.001-0.004,0.005-0.01,0.011-0.021c0.007-0.012,0.016-0.025,0.025-0.039
		c0.01-0.016,0.02-0.031,0.031-0.051c0.01-0.018,0.02-0.033,0.03-0.047c0.01-0.018,0.018-0.029,0.025-0.041
		c0.007-0.014,0.011-0.02,0.012-0.021c0.001-0.004,0.006-0.012,0.015-0.022c0.008-0.013,0.018-0.024,0.028-0.039
		c0.01-0.015,0.019-0.024,0.028-0.037c0.008-0.013,0.014-0.021,0.016-0.024c0.001-0.002,0.008-0.017,0.019-0.035
		c0.012-0.021,0.024-0.043,0.038-0.064c0.014-0.023,0.026-0.047,0.038-0.067c0.012-0.021,0.019-0.033,0.021-0.038l0.035-0.042
		c0.001-0.005,0.009-0.021,0.021-0.043c0.013-0.024,0.026-0.052,0.041-0.08c0.015-0.028,0.028-0.056,0.041-0.079
		c0.013-0.023,0.02-0.038,0.022-0.043c0.001-0.004,0.007-0.014,0.017-0.029c0.01-0.016,0.021-0.033,0.032-0.051
		c0.012-0.02,0.023-0.038,0.034-0.055c0.011-0.018,0.018-0.031,0.021-0.04l0.042-0.061c0.001-0.004,0.005-0.011,0.009-0.02
		s0.01-0.019,0.017-0.028c0.006-0.01,0.012-0.02,0.017-0.027c0.005-0.01,0.008-0.016,0.01-0.021c0.002-0.003,0.005-0.01,0.011-0.021
		c0.006-0.011,0.012-0.021,0.019-0.034c0.006-0.012,0.013-0.023,0.019-0.033c0.006-0.011,0.009-0.018,0.011-0.023
		c0.002-0.004,0.005-0.01,0.009-0.014c0.004-0.005,0.008-0.01,0.012-0.015c0.006-0.007,0.011-0.012,0.016-0.017
		c0.001-0.004,0.006-0.009,0.011-0.013c0.006-0.005,0.013-0.009,0.021-0.012c0.008-0.004,0.015-0.006,0.021-0.007
		c0.008-0.002,0.013-0.003,0.018-0.001l0.067,0.024l0.067,0.024c0.005,0.002,0.009,0.005,0.014,0.009
		c0.006,0.004,0.01,0.008,0.016,0.012c0.005,0.006,0.011,0.012,0.017,0.017c0.003,0.001,0.007,0.007,0.012,0.018
		c0.006,0.009,0.011,0.021,0.016,0.033c0.006,0.013,0.01,0.025,0.014,0.038c0.004,0.012,0.007,0.021,0.011,0.027
		c0.004,0.013,0.01,0.025,0.014,0.036c0.004,0.01,0.008,0.02,0.011,0.028c0.002,0.01,0.002,0.017,0.001,0.021l0.006,0.041
		c-0.002,0.004-0.003,0.012-0.004,0.02c0,0.007-0.001,0.016-0.002,0.023c0,0.01,0,0.02,0,0.029l-0.025,0.069
		c-0.002,0.005-0.003,0.016-0.004,0.034s-0.001,0.037-0.002,0.059c0,0.021-0.002,0.042-0.002,0.061
		c-0.001,0.02-0.002,0.029-0.003,0.033l-0.014,0.094c-0.003,0.006-0.005,0.02-0.006,0.033C21.201,15.3,21.2,15.314,21.2,15.33
		c-0.001,0.016-0.001,0.029-0.002,0.043c0,0.014-0.001,0.021-0.002,0.025c-0.002,0.004-0.003,0.016-0.003,0.031
		s-0.001,0.032-0.001,0.053c0,0.02-0.001,0.037-0.001,0.055s0,0.027-0.001,0.029l-0.007,0.076c-0.001,0.004-0.002,0.012-0.002,0.021
		c0.001,0.01,0.002,0.02,0.004,0.025c0.001,0.014,0.003,0.022,0.007,0.035l0.063,0.039c0.005,0.002,0.01,0.006,0.014,0.01
		c0.005,0.004,0.01,0.006,0.014,0.012c0.005,0.006,0.01,0.01,0.016,0.016l0.022,0.049l-0.005,0.014l-0.007,0.019l-0.117,0.058
		l-0.006,0.018l-0.013,0.034c-0.001,0.005-0.003,0.017-0.005,0.032c-0.003,0.02-0.005,0.039-0.007,0.063
		c-0.003,0.021-0.005,0.047-0.007,0.07c-0.002,0.021-0.004,0.041-0.004,0.057c-0.002,0.004-0.003,0.01-0.003,0.018
		c0,0.006,0,0.013,0,0.019s0.001,0.015,0.001,0.021c-0.001,0.004-0.001,0.019,0.002,0.037c0.003,0.02,0.006,0.043,0.01,0.064
		c0.003,0.021,0.006,0.045,0.01,0.063c0.003,0.021,0.004,0.031,0.002,0.035c-0.001,0.006-0.003,0.014-0.002,0.021
		c0,0.012,0,0.023,0,0.035c0.001,0.014,0.001,0.024,0.001,0.035c0,0.012,0,0.02-0.002,0.021l0.006,0.043
		c-0.002,0.004,0,0.015,0.003,0.024c0.004,0.013,0.009,0.021,0.012,0.037c0.004,0.014,0.009,0.025,0.012,0.037
		c0.004,0.014,0.005,0.021,0.004,0.023l0.004,0.041l-0.01,0.02l-0.006,0.016l-0.029,0.027c-0.011,0.008-0.021,0.016-0.029,0.021
		c-0.018,0.014-0.033,0.022-0.046,0.028c-0.012,0.004-0.024,0.011-0.037,0.015c-0.014,0.002-0.029,0.002-0.046-0.004l-0.015-0.007
		l-0.028-0.03c-0.003-0.007-0.007-0.015-0.011-0.021c-0.003-0.009-0.008-0.015-0.012-0.021c-0.004-0.01-0.009-0.018-0.013-0.025
		c0.001-0.006,0.002-0.014,0.001-0.027c-0.001-0.012-0.003-0.026-0.006-0.045c-0.002-0.018-0.005-0.033-0.008-0.051
		c-0.002-0.018-0.003-0.031-0.004-0.041l-0.001-0.092c0.001-0.004,0-0.014,0-0.025c-0.002-0.014-0.003-0.028-0.004-0.045
		c-0.002-0.016-0.003-0.028-0.005-0.043c-0.002-0.014-0.001-0.021,0-0.026c0.001-0.005,0.003-0.013,0.004-0.027
		c0.001-0.016,0.002-0.028,0.003-0.047c0.001-0.017,0.002-0.03,0.003-0.045c0-0.015,0.001-0.022,0.003-0.026
		c0-0.011,0-0.025,0-0.046s0.001-0.038,0.003-0.059c0.001-0.021,0.002-0.037,0.003-0.054c0.002-0.018,0.004-0.026,0.006-0.033
		c-0.003-0.006-0.006-0.016-0.008-0.024c-0.003-0.012-0.005-0.022-0.008-0.034c-0.002-0.013-0.005-0.027-0.007-0.043L20.854,15.951z
		 M20.582,15.639l0.008,0.021l0.036,0.014c0.033,0.013,0.069,0.021,0.106,0.024c0.037,0.007,0.074,0.011,0.111,0.015
		c0.005,0,0.01,0.002,0.018,0.002c0.006,0,0.011,0,0.018,0c0.006,0,0.014-0.002,0.021-0.002l0.022-0.008l0.007-0.021l0.006-0.018
		c0.001-0.004,0.003-0.014,0.005-0.025c0.001-0.016,0.002-0.031,0.004-0.047c0-0.016,0.002-0.031,0.003-0.045
		c0.002-0.014,0.003-0.023,0.005-0.027c0.001-0.004,0.003-0.013,0.006-0.026c0.003-0.015,0.006-0.029,0.009-0.045
		c0.003-0.017,0.006-0.031,0.009-0.046c0.003-0.014,0.005-0.022,0.007-0.026s0.001-0.012,0-0.025
		c-0.002-0.014-0.004-0.027-0.007-0.044c-0.002-0.017-0.005-0.033-0.008-0.05c-0.002-0.018-0.005-0.03-0.006-0.04l-0.02-0.044
		l-0.017-0.008l-0.023,0.008c-0.002,0.006-0.006,0.011-0.012,0.015c-0.005,0.006-0.011,0.011-0.017,0.017
		c-0.006,0.004-0.012,0.01-0.018,0.014c-0.005,0.004-0.008,0.009-0.01,0.013c-0.014,0.015-0.026,0.027-0.036,0.039
		c-0.009,0.011-0.018,0.021-0.024,0.028c-0.007,0.01-0.012,0.018-0.014,0.021c-0.001,0.006-0.006,0.014-0.015,0.022
		c-0.007,0.01-0.016,0.021-0.024,0.03c-0.01,0.013-0.018,0.022-0.025,0.032c-0.008,0.011-0.012,0.019-0.013,0.021
		c-0.001,0.004-0.005,0.01-0.01,0.018c-0.004,0.009-0.009,0.015-0.015,0.021c-0.006,0.007-0.011,0.017-0.016,0.022
		c-0.005,0.007-0.008,0.013-0.009,0.017c-0.001,0.007-0.005,0.015-0.011,0.022c-0.005,0.011-0.011,0.021-0.018,0.033
		c-0.006,0.012-0.012,0.021-0.018,0.033c-0.006,0.012-0.009,0.02-0.011,0.021L20.582,15.639z"/>
</g>
<rect x="31.906" y="13.913" transform="matrix(-0.9399 0.3416 -0.3416 -0.9399 70.2042 18.5858)" fill="#FFFFFF" stroke="#000000" stroke-width="0.5" stroke-miterlimit="10" width="3.119" height="3.12"/>
<g enable-background="new    ">
	<path d="M34.137,16.229l-0.02,0.006c-0.004,0.002-0.012,0.01-0.021,0.021c-0.009,0.012-0.021,0.023-0.033,0.039
		c-0.012,0.016-0.021,0.025-0.033,0.039c-0.01,0.012-0.018,0.02-0.021,0.021c-0.006,0.004-0.01,0.01-0.016,0.015
		c-0.007,0.004-0.013,0.01-0.017,0.014c-0.004,0.005-0.011,0.007-0.017,0.009l-0.078,0.049c-0.004,0-0.012,0.006-0.021,0.014
		c-0.01,0.008-0.021,0.018-0.032,0.023c-0.013,0.008-0.021,0.02-0.031,0.024c-0.012,0.009-0.019,0.013-0.021,0.015
		c-0.006,0.002-0.012,0.004-0.02,0.008c-0.006,0.006-0.014,0.012-0.021,0.018c-0.008,0.004-0.016,0.012-0.021,0.018l-0.104,0.037
		l-0.086,0.031c-0.004,0-0.012,0.004-0.022,0.006c-0.015,0.004-0.024,0.004-0.041,0.006c-0.015,0.002-0.026,0.002-0.039,0.002
		c-0.014,0-0.022-0.002-0.028-0.006c-0.004,0.002-0.013,0.004-0.021,0.004c-0.013,0-0.022-0.002-0.035-0.002
		c-0.014-0.002-0.024-0.004-0.036-0.006c-0.013-0.002-0.021-0.004-0.025-0.008c-0.006,0.002-0.012,0.002-0.021,0
		c-0.006,0-0.014-0.004-0.021-0.006c-0.006-0.003-0.016-0.008-0.024-0.012c-0.006-0.002-0.017-0.006-0.026-0.012
		c-0.012-0.007-0.024-0.015-0.041-0.021c-0.017-0.008-0.029-0.014-0.041-0.02c-0.015-0.008-0.022-0.012-0.026-0.014
		c-0.013-0.008-0.021-0.016-0.031-0.021c-0.008-0.006-0.019-0.012-0.024-0.018c-0.01-0.004-0.017-0.008-0.021-0.01
		c-0.024-0.021-0.045-0.043-0.06-0.066c-0.014-0.021-0.028-0.047-0.049-0.068l-0.035-0.045l-0.019-0.049l-0.021-0.055
		c-0.004-0.014-0.01-0.033-0.019-0.063c-0.008-0.03-0.014-0.063-0.021-0.097c-0.008-0.032-0.014-0.065-0.021-0.096
		c-0.006-0.029-0.012-0.052-0.016-0.063c0.004-0.039,0.006-0.082,0.004-0.131s0.002-0.094,0.008-0.133l0.014-0.063l0.014-0.021
		c0.008-0.031,0.014-0.066,0.02-0.104s0.012-0.069,0.02-0.104c0.005-0.006,0.01-0.019,0.014-0.035
		c0.006-0.018,0.01-0.034,0.018-0.053c0.006-0.02,0.01-0.037,0.016-0.054c0.004-0.018,0.008-0.028,0.01-0.036l0.018-0.062
		c0.002-0.009,0.006-0.022,0.015-0.038s0.017-0.032,0.026-0.047c0.01-0.018,0.021-0.03,0.027-0.044
		c0.01-0.013,0.016-0.021,0.018-0.027s0.008-0.014,0.018-0.022c0.008-0.008,0.016-0.018,0.021-0.026
		c0.01-0.011,0.02-0.019,0.025-0.024c0.008-0.008,0.014-0.012,0.02-0.014l0.054-0.02l0.052-0.019c0.002-0.002,0.01-0.002,0.02,0
		c0.008,0.002,0.016,0.003,0.021,0.005c0.007,0.002,0.018,0.003,0.021,0.005c0.006,0.001,0.014,0,0.02-0.002l0.037,0.018
		c0.01,0.005,0.021,0.011,0.027,0.016c0.011,0.004,0.021,0.01,0.025,0.012c0.008,0.004,0.014,0.008,0.023,0.012
		c0.008,0.007,0.016,0.013,0.021,0.018c0.01,0.008,0.02,0.014,0.027,0.021l0.006,0.018l0.014,0.031l-0.02,0.047l-0.048,0.037
		l-0.224,0.08l-0.039,0.052l-0.01,0.022l-0.027,0.086c0.002,0.006,0.002,0.013-0.004,0.022c-0.004,0.011-0.008,0.021-0.016,0.033
		c-0.006,0.012-0.01,0.022-0.014,0.032c-0.006,0.011-0.006,0.019-0.006,0.022c0,0.007-0.004,0.021-0.01,0.039
		c-0.008,0.021-0.014,0.045-0.02,0.07c-0.006,0.023-0.012,0.047-0.016,0.07c-0.004,0.021-0.006,0.039-0.008,0.05l-0.004,0.038
		c-0.002,0.016-0.002,0.033,0,0.059c0,0.023,0,0.049,0.002,0.071c0,0.024,0.002,0.046,0.002,0.063
		c0.002,0.02,0.004,0.029,0.006,0.035c0.002,0.004,0.004,0.014,0.006,0.024s0.006,0.024,0.01,0.037
		c0.002,0.017,0.004,0.028,0.008,0.043c0.002,0.017,0.006,0.026,0.012,0.035l0.018,0.054l0.018,0.049
		c0.002,0.004,0.006,0.014,0.012,0.021c0.004,0.008,0.013,0.02,0.02,0.027c0.006,0.01,0.012,0.021,0.02,0.029
		c0.006,0.008,0.008,0.014,0.01,0.02c0.002,0.004,0.006,0.01,0.01,0.014c0.006,0.005,0.012,0.01,0.018,0.016
		c0.006,0.004,0.012,0.01,0.016,0.015c0.008,0.006,0.012,0.01,0.012,0.014c0.014,0.009,0.023,0.015,0.039,0.019
		c0.01,0.004,0.021,0.01,0.027,0.016c0.011,0.004,0.02,0.008,0.023,0.012c0.008,0.004,0.016,0.006,0.029,0.01
		c0.012,0.004,0.025,0.008,0.037,0.012c0.016,0.007,0.031,0.011,0.047,0.015c0.006,0.004,0.016,0.007,0.029,0.009
		c0.014,0.004,0.025,0.004,0.041,0.006c0.016,0,0.027,0,0.041-0.002c0.014,0.002,0.021,0,0.023-0.002l0.068-0.025l0.068-0.023
		c0.002,0,0.012-0.004,0.023-0.012c0.014-0.008,0.027-0.016,0.041-0.021c0.016-0.009,0.029-0.015,0.041-0.021
		c0.012-0.007,0.02-0.013,0.025-0.015c0.014-0.012,0.023-0.022,0.037-0.033c0.01-0.008,0.02-0.018,0.027-0.024
		c0.01-0.006,0.02-0.012,0.021-0.014c0.013-0.009,0.024-0.021,0.041-0.033c0.019-0.017,0.033-0.028,0.051-0.043
		c0.019-0.019,0.037-0.035,0.058-0.054c0.005-0.002,0.009-0.006,0.015-0.016c0.006-0.008,0.013-0.018,0.019-0.027
		c0.006-0.008,0.013-0.02,0.017-0.028c0.006-0.013,0.008-0.021,0.012-0.026l0.006-0.039c-0.004-0.011-0.006-0.021-0.006-0.035
		c0.002-0.008,0.002-0.014,0.002-0.021l-0.022-0.067l-0.024-0.066c-0.002-0.006-0.004-0.012-0.01-0.021
		c-0.005-0.009-0.011-0.019-0.019-0.027c-0.007-0.012-0.013-0.021-0.017-0.027s-0.008-0.018-0.011-0.021l-0.022-0.01L33.88,15.66
		l-0.069,0.025l-0.026,0.026c-0.005,0.007-0.011,0.019-0.021,0.033c-0.013,0.014-0.023,0.028-0.037,0.047
		c-0.015,0.019-0.025,0.033-0.037,0.049c-0.012,0.015-0.021,0.025-0.021,0.031l-0.045,0.03l-0.055,0.021l-0.031,0.013h-0.039
		l-0.05-0.021c-0.009-0.004-0.015-0.008-0.021-0.014c-0.006-0.004-0.012-0.008-0.016-0.012c-0.006-0.005-0.01-0.011-0.016-0.017
		l-0.006-0.019l-0.016-0.035c-0.002-0.008-0.004-0.021-0.006-0.041c-0.003-0.01-0.003-0.021-0.006-0.03l0.025-0.045l0.027-0.029
		c0.004-0.002,0.014-0.006,0.029-0.019c0.016-0.008,0.031-0.021,0.049-0.03c0.02-0.013,0.035-0.021,0.049-0.031
		c0.016-0.01,0.025-0.016,0.031-0.018c0.004-0.003,0.012-0.009,0.023-0.021c0.014-0.015,0.025-0.027,0.041-0.043
		c0.016-0.017,0.027-0.033,0.043-0.048c0.014-0.017,0.023-0.026,0.029-0.034l0.041-0.054l0.023-0.028
		c0.008-0.002,0.012-0.004,0.018-0.009c0.004-0.004,0.012-0.008,0.016-0.012c0.006-0.006,0.012-0.012,0.018-0.018l0.066-0.023
		l0.053-0.021l0.041,0.007c0.006,0.002,0.012,0.006,0.02,0.01c0.008,0.004,0.016,0.008,0.023,0.012
		c0.008,0.002,0.016,0.006,0.025,0.011c0.01,0.012,0.018,0.022,0.023,0.03c0.006,0.009,0.012,0.018,0.021,0.024
		c0.008,0.007,0.014,0.015,0.02,0.017c0.016,0.017,0.029,0.033,0.039,0.056c0.01,0.021,0.023,0.039,0.039,0.053
		c0.006,0.02,0.014,0.043,0.021,0.076c0.014,0.035,0.021,0.071,0.035,0.112s0.023,0.086,0.039,0.132
		c0.016,0.045,0.023,0.09,0.037,0.131s0.021,0.078,0.033,0.112c0.012,0.033,0.02,0.06,0.023,0.076l0.021,0.049l0.012,0.037
		c0.004,0.009,0.012,0.021,0.021,0.043c0.01,0.021,0.02,0.041,0.027,0.063c0.012,0.021,0.021,0.043,0.031,0.063
		c0.008,0.021,0.016,0.033,0.02,0.043l0.027,0.029l0.014,0.03l0.008,0.019l-0.006,0.024c0,0.006-0.002,0.015-0.004,0.021
		c-0.002,0.007-0.004,0.013-0.008,0.021l-0.01,0.021c-0.002,0.007-0.006,0.013-0.012,0.019c-0.004,0.008-0.01,0.014-0.014,0.02
		c-0.006,0.006-0.012,0.012-0.018,0.018l-0.049,0.019l-0.035,0.014c-0.01,0-0.016-0.002-0.021-0.004
		c-0.006,0-0.012-0.002-0.016-0.006c-0.006-0.002-0.008-0.007-0.012-0.013l-0.027-0.024c-0.004-0.006-0.006-0.012-0.01-0.017
		c-0.004-0.006-0.008-0.01-0.012-0.016c-0.006-0.008-0.01-0.012-0.014-0.018s-0.008-0.012-0.014-0.021
		c-0.006-0.009-0.014-0.021-0.02-0.033c-0.008-0.012-0.014-0.021-0.02-0.033c-0.006-0.01-0.01-0.018-0.012-0.022
		c-0.002-0.008-0.01-0.022-0.021-0.047c-0.013-0.021-0.021-0.045-0.032-0.067c-0.011-0.025-0.021-0.049-0.031-0.069
		C34.146,16.251,34.139,16.236,34.137,16.229z"/>
</g>
<rect x="42.302" y="6.682" transform="matrix(-0.6429 0.7659 -0.7659 -0.6429 78.3744 -20.054)" fill="#FFFFFF" stroke="#000000" stroke-width="0.5" stroke-miterlimit="10" width="3.12" height="3.12"/>
<g enable-background="new    ">
	<path d="M43.898,9.525c-0.002-0.003-0.008-0.009-0.016-0.016c-0.004-0.008-0.01-0.015-0.016-0.021
		C43.863,9.48,43.855,9.47,43.85,9.459l-0.02-0.04c-0.004-0.003-0.004-0.008-0.006-0.014c0-0.006,0-0.012,0.002-0.019l0.004-0.024
		l0.025-0.029l0.037-0.045l0.027-0.004l0.043,0.012l0.07,0.035c0.004,0.003,0.012,0.006,0.021,0.007
		c0.008,0.001,0.016,0.002,0.025,0.004c0.01,0.001,0.02,0.002,0.025,0.005c0.01,0.001,0.016,0.004,0.02,0.006l0.057-0.006
		l0.045-0.02c0.002-0.004,0.008-0.008,0.016-0.014c0.006-0.005,0.014-0.01,0.02-0.015c0.01-0.006,0.018-0.012,0.029-0.018
		l0.09-0.107l0.088-0.105c0.008-0.018,0.018-0.034,0.025-0.05c0.006-0.014,0.014-0.028,0.02-0.044
		c0.006-0.015,0.012-0.028,0.014-0.039c0.025-0.045,0.041-0.093,0.049-0.143c0.006-0.049,0.01-0.098,0.012-0.146
		c0-0.008,0-0.017,0.002-0.028c0.002-0.011,0.002-0.022,0.002-0.033c0.002-0.012,0.002-0.025,0.002-0.037
		c-0.002-0.009-0.002-0.018-0.004-0.032c0-0.013-0.002-0.027-0.002-0.04c-0.002-0.015-0.004-0.028-0.004-0.041
		c-0.002-0.012-0.002-0.021-0.002-0.029l-0.021-0.069c-0.004-0.003-0.008-0.01-0.014-0.019c-0.004-0.009-0.008-0.019-0.012-0.029
		c-0.006-0.01-0.008-0.02-0.014-0.029c-0.004-0.009-0.008-0.015-0.014-0.019l-0.016-0.013L44.48,8.216
		c-0.004-0.003-0.01-0.006-0.018-0.009c-0.006-0.002-0.012-0.005-0.02-0.007c-0.008-0.002-0.016-0.004-0.023-0.008
		c-0.012,0.001-0.021,0.001-0.031,0.001c-0.012,0.001-0.021,0.002-0.029,0.003c-0.008,0.003-0.014,0.005-0.02,0.009
		c-0.012,0.003-0.021,0.007-0.033,0.011c-0.012,0.002-0.02,0.007-0.025,0.011c-0.012,0.004-0.018,0.008-0.02,0.012L44.2,8.267
		c-0.003,0.003-0.011,0.009-0.019,0.016c-0.009,0.006-0.019,0.015-0.027,0.022c-0.01,0.008-0.021,0.017-0.026,0.023
		c-0.01,0.008-0.017,0.014-0.019,0.018c-0.012,0.013-0.028,0.032-0.051,0.058C44.036,8.43,44.01,8.459,43.98,8.492
		c-0.028,0.032-0.06,0.066-0.09,0.101c-0.031,0.035-0.063,0.068-0.093,0.101c-0.026,0.032-0.055,0.061-0.075,0.087
		c-0.022,0.025-0.041,0.044-0.052,0.057c-0.004,0.004-0.01,0.009-0.017,0.014c-0.008,0.006-0.016,0.012-0.024,0.019
		c-0.008,0.007-0.017,0.013-0.022,0.019c-0.008,0.006-0.015,0.011-0.017,0.014c-0.004,0.004-0.01,0.009-0.021,0.015
		c-0.01,0.006-0.021,0.012-0.034,0.017c-0.015,0.005-0.027,0.01-0.039,0.014c-0.015,0.003-0.022,0.006-0.029,0.005
		c-0.014,0.003-0.026,0.004-0.038,0.004c-0.015,0-0.022-0.003-0.033-0.011c-0.004-0.003-0.008-0.006-0.017-0.008
		c-0.004-0.002-0.01-0.005-0.019-0.008c-0.006-0.002-0.016-0.004-0.022-0.007c-0.004-0.003-0.008-0.009-0.014-0.016
		c-0.007-0.008-0.013-0.016-0.019-0.023c-0.007-0.007-0.013-0.015-0.019-0.022c-0.006-0.007-0.011-0.012-0.015-0.016l-0.021-0.072
		c-0.004-0.009-0.008-0.026-0.012-0.052c-0.005-0.027-0.009-0.053-0.011-0.082c0-0.029,0-0.057,0-0.083s0-0.045,0.004-0.057
		l0.002-0.1c0.004-0.004,0.004-0.012,0.006-0.024c-0.002-0.013-0.002-0.025-0.004-0.039c0-0.014-0.002-0.027-0.002-0.039
		c0-0.012,0-0.021,0.004-0.024c0-0.011-0.002-0.021,0-0.031c-0.002-0.008-0.002-0.016,0-0.024c0-0.008,0.002-0.015,0.004-0.019
		l0.021-0.118l0.01-0.073l0.021-0.088C43.298,7.92,43.3,7.913,43.3,7.902c0.003-0.011,0.003-0.022,0.003-0.034
		c0-0.013,0.002-0.024,0.002-0.035c0.002-0.011,0.006-0.019,0.008-0.023c0.004-0.004,0.008-0.013,0.01-0.025
		c0.005-0.013,0.007-0.026,0.009-0.042c0.002-0.014,0.006-0.028,0.008-0.041c0.002-0.012,0.007-0.02,0.009-0.024l0.008-0.07
		c0-0.007,0-0.016,0.004-0.026c0.002-0.01,0.006-0.019,0.009-0.028c0.004-0.011,0.006-0.021,0.01-0.031l0.039-0.048
		c0.004-0.003,0.01-0.009,0.019-0.016c0.008-0.007,0.019-0.015,0.03-0.021c0.017-0.006,0.033-0.012,0.054-0.016
		c0.021-0.004,0.047-0.005,0.078-0.004l0.039,0.01l0.032,0.051v0.027c-0.004,0.004-0.006,0.01-0.006,0.018
		c-0.002,0.008-0.002,0.016-0.002,0.024c0,0.009,0,0.02,0,0.03c-0.002,0.011-0.007,0.028-0.017,0.05
		c-0.006,0.022-0.015,0.045-0.021,0.07c-0.012,0.024-0.02,0.045-0.023,0.065c-0.008,0.019-0.014,0.031-0.018,0.036
		c-0.004,0.004-0.012,0.011-0.018,0.023c-0.006,0.012-0.012,0.024-0.02,0.038c-0.008,0.015-0.014,0.027-0.02,0.04
		c-0.008,0.011-0.012,0.019-0.018,0.023l-0.012,0.049l-0.021,0.079c0,0.008,0,0.019-0.004,0.032
		c-0.004,0.014-0.006,0.029-0.01,0.046s-0.008,0.032-0.012,0.046c-0.002,0.015-0.004,0.026-0.002,0.035
		c0,0.007-0.002,0.017-0.004,0.03c-0.002,0.013-0.004,0.026-0.006,0.04c-0.004,0.014-0.004,0.028-0.006,0.041
		c-0.002,0.013-0.004,0.022-0.002,0.031c0,0.006,0,0.016,0,0.027c0,0.011,0,0.023,0,0.035c0,0.013,0,0.026,0,0.037
		c-0.002,0.012-0.002,0.021,0,0.026c-0.004,0.004-0.006,0.01-0.004,0.02c0,0.009,0.002,0.019,0.004,0.028
		c0.002,0.012,0.006,0.024,0.008,0.037c0.004,0.003,0.006,0.009,0.008,0.016c0.002,0.008,0.008,0.016,0.008,0.024
		c0.004,0.01,0.006,0.021,0.008,0.031l0.016,0.012l0.016,0.012l0.025-0.003l0.045-0.019l0.344-0.41
		c0.018-0.015,0.033-0.03,0.049-0.043c0.014-0.012,0.025-0.024,0.039-0.036c0.014-0.013,0.023-0.023,0.029-0.031
		c0.006-0.007,0.016-0.017,0.025-0.027c0.014-0.011,0.021-0.021,0.033-0.031c0.016-0.011,0.025-0.023,0.043-0.036l0.057-0.035
		c0.004-0.003,0.01-0.007,0.021-0.013c0.01-0.005,0.021-0.011,0.034-0.016c0.013-0.005,0.025-0.01,0.037-0.015
		c0.015-0.004,0.022-0.007,0.029-0.008c0.008-0.001,0.016-0.003,0.026-0.006c0.011-0.003,0.024-0.007,0.037-0.011
		c0.014-0.004,0.028-0.009,0.045-0.016c0.021,0.006,0.039,0.012,0.057,0.016c0.017,0.003,0.031,0.007,0.044,0.009
		c0.014,0.003,0.024,0.004,0.03,0.003c0.004,0.003,0.01,0.007,0.021,0.012c0.008,0.004,0.017,0.008,0.022,0.011
		c0.011,0.005,0.021,0.008,0.028,0.011l0.05,0.067l0.047,0.038c0.011,0.019,0.019,0.036,0.024,0.052
		c0.009,0.013,0.015,0.027,0.019,0.041c0.004,0.014,0.006,0.024,0.009,0.031c0.004,0.003,0.006,0.008,0.01,0.016
		c0.002,0.006,0.004,0.014,0.006,0.022s0.004,0.018,0.007,0.029c0,0.006,0.002,0.018,0.002,0.034
		c0.002,0.016,0.004,0.032,0.006,0.049c0.002,0.017,0.002,0.034,0.004,0.05c0,0.017,0.002,0.028,0.002,0.034V8.53
		c0,0.007,0,0.021,0,0.041s0,0.042,0,0.064c0,0.023,0,0.045,0,0.065s0,0.033,0.002,0.041c-0.004,0.004-0.006,0.014-0.008,0.028
		c-0.004,0.014-0.004,0.031-0.006,0.048c-0.002,0.018-0.007,0.034-0.009,0.05c-0.002,0.015-0.004,0.024-0.008,0.028l-0.01,0.076
		c-0.002,0.01-0.006,0.017-0.008,0.024c-0.002,0.016-0.01,0.028-0.018,0.038c-0.002,0.003-0.008,0.012-0.014,0.026
		c-0.008,0.015-0.016,0.03-0.021,0.046c-0.01,0.015-0.018,0.031-0.021,0.045c-0.008,0.014-0.012,0.023-0.016,0.026l-0.023,0.06
		l-0.23,0.275C44.4,9.516,44.393,9.52,44.387,9.523c-0.008,0.003-0.012,0.006-0.018,0.01c-0.006,0.003-0.01,0.007-0.014,0.011
		c-0.006,0-0.018,0.004-0.029,0.009c-0.014,0.005-0.027,0.012-0.041,0.019c-0.016,0.008-0.033,0.017-0.051,0.024
		c-0.01,0.001-0.021,0.003-0.031,0.004c-0.014,0.001-0.027,0.003-0.041,0.004c-0.014,0-0.027,0.002-0.039,0.003
		s-0.021,0.003-0.031,0.002c-0.014,0-0.025-0.002-0.037-0.004c-0.008-0.002-0.018-0.004-0.027-0.006
		c-0.008-0.002-0.016-0.005-0.02-0.009c-0.016-0.006-0.027-0.012-0.039-0.019c-0.01-0.005-0.02-0.012-0.029-0.017
		c-0.012-0.006-0.018-0.011-0.021-0.015L43.898,9.525z"/>
</g>
</svg>
